<svg width="24" height="25" viewBox="0 0 24 25" fill="none" xmlns="http://www.w3.org/2000/svg">
<path fill-rule="evenodd" clip-rule="evenodd" d="M12.0099 0.699951C5.36875 0.699951 0 6.10828 0 12.7991C0 18.1475 3.43994 22.6747 8.21205 24.2771C8.80869 24.3975 9.02724 24.0167 9.02724 23.6964C9.02724 23.4159 9.00757 22.4545 9.00757 21.4527C5.6667 22.174 4.97099 20.0104 4.97099 20.0104C4.43409 18.6082 3.63858 18.2478 3.63858 18.2478C2.54511 17.5066 3.71823 17.5066 3.71823 17.5066C4.93117 17.5867 5.56763 18.7485 5.56763 18.7485C6.64118 20.5913 8.37111 20.0706 9.06706 19.75C9.16638 18.9688 9.48473 18.428 9.82275 18.1275C7.15817 17.8471 4.35469 16.8055 4.35469 12.158C4.35469 10.8359 4.8316 9.75423 5.58729 8.91299C5.46807 8.61258 5.0504 7.37039 5.70677 5.70782C5.70677 5.70782 6.72083 5.38725 9.00732 6.94977C9.98625 6.68492 10.9958 6.55019 12.0099 6.54906C13.024 6.54906 14.0577 6.68943 15.0123 6.94977C17.299 5.38725 18.3131 5.70782 18.3131 5.70782C18.9695 7.37039 18.5515 8.61258 18.4323 8.91299C19.2079 9.75423 19.6652 10.8359 19.6652 12.158C19.6652 16.8055 16.8617 17.8269 14.1772 18.1275C14.6148 18.5081 14.9924 19.2291 14.9924 20.371C14.9924 21.9935 14.9727 23.2957 14.9727 23.6962C14.9727 24.0167 15.1915 24.3975 15.7879 24.2773C20.56 22.6745 23.9999 18.1475 23.9999 12.7991C24.0196 6.10828 18.6312 0.699951 12.0099 0.699951Z" fill="white"/>
</svg>
