<svg width="24" height="25" viewBox="0 0 24 25" fill="none" xmlns="http://www.w3.org/2000/svg">
<path d="M20.4489 20.9493H16.8928V15.3803C16.8928 14.0523 16.8691 12.3427 15.0433 12.3427C13.1912 12.3427 12.9078 13.7896 12.9078 15.2836V20.9489H9.35179V9.49673H12.7656V11.0618H12.8134C13.5095 9.87158 14.8038 9.16072 16.1816 9.21187C19.7858 9.21187 20.4504 11.5826 20.4504 14.6668L20.4489 20.9493ZM5.33938 7.93129C4.19967 7.93149 3.27559 7.00772 3.27539 5.86799C3.27518 4.72826 4.19893 3.80416 5.33864 3.80396C6.47834 3.80375 7.40242 4.72752 7.40263 5.86725C7.40272 6.41457 7.1854 6.93951 6.79847 7.32659C6.41153 7.71368 5.88668 7.93119 5.33938 7.93129ZM7.1174 20.9493H3.55765V9.49673H7.1174V20.9493ZM22.2217 0.501576H1.77073C0.804177 0.490668 0.0115426 1.26492 -0.000253677 2.23148V22.7677C0.0111387 23.7348 0.803709 24.5098 1.77073 24.4996H22.2217C23.1907 24.5117 23.9863 23.7367 23.9997 22.7677V2.23C23.9859 1.26153 23.1902 0.487321 22.2217 0.499938" fill="white"/>
</svg>
