<svg width="80" height="55" viewBox="0 0 80 55" fill="none" xmlns="http://www.w3.org/2000/svg">
<g clip-path="url(#clip0_1_192)">
<path d="M67.6422 21.5584C64.8323 21.5586 62.1376 22.6749 60.1507 24.6617C58.1638 26.6486 57.0475 29.3434 57.0474 32.1532C57.0475 34.9631 58.1638 37.6579 60.1506 39.6448C62.1375 41.6317 64.8323 42.748 67.6422 42.7482C69.0337 42.7484 70.4116 42.4745 71.6973 41.9422C72.983 41.4099 74.1512 40.6295 75.1353 39.6456C76.1193 38.6618 76.8999 37.4937 77.4325 36.2082C77.9652 34.9226 78.2393 33.5447 78.2394 32.1532C78.2393 30.7617 77.9651 29.3838 77.4325 28.0983C76.8999 26.8128 76.1193 25.6447 75.1352 24.6609C74.1511 23.6771 72.9829 22.8967 71.6973 22.3644C70.4116 21.832 69.0337 21.5582 67.6422 21.5584ZM67.6422 25.9195C69.3107 25.9195 70.9109 26.5824 72.0907 27.7622C73.2706 28.942 73.9334 30.5422 73.9334 32.2108C73.9334 33.8793 73.2706 35.4795 72.0907 36.6593C70.9109 37.8391 69.3107 38.502 67.6422 38.502C65.9736 38.502 64.3734 37.8391 63.1936 36.6593C62.0138 35.4795 61.351 33.8793 61.351 32.2108C61.351 30.5422 62.0138 28.942 63.1936 27.7622C64.3734 26.5824 65.9736 25.9195 67.6422 25.9195Z" fill="#F9EDDC" stroke="#260704" stroke-width="2" stroke-linecap="round" stroke-linejoin="round"/>
<path d="M18.8955 2.77209C18.1388 2.77239 17.4131 3.07316 16.8779 3.6083C16.3428 4.14344 16.0421 4.86916 16.0419 5.62594C16.0417 6.00085 16.1154 6.37212 16.2587 6.71854C16.4021 7.06497 16.6123 7.37977 16.8773 7.64497C17.1423 7.91017 17.4569 8.12057 17.8032 8.26417C18.1496 8.40776 18.5208 8.48173 18.8957 8.48186C19.2708 8.48205 19.6423 8.40831 19.9889 8.26486C20.3355 8.12141 20.6504 7.91105 20.9157 7.64582C21.1809 7.38059 21.3913 7.06568 21.5348 6.7191C21.6783 6.37252 21.7521 6.00105 21.7519 5.62594C21.7518 5.25102 21.6778 4.87981 21.5342 4.53349C21.3907 4.18716 21.1803 3.87252 20.9151 3.60751C20.6499 3.34251 20.3351 3.13233 19.9886 2.98899C19.6422 2.84565 19.2709 2.77195 18.896 2.77209H18.8955ZM8.47557 8.93237C8.1395 8.93429 7.79829 8.98045 7.45549 9.07933C5.22331 9.72295 2.75956 13.0393 3.89151 15.0675C6.45335 19.658 19.6608 15.3156 19.6608 15.3156C15.9545 15.113 12.4409 8.90897 8.47541 8.93253L8.47557 8.93237ZM58.711 12.0412C55.5097 11.9888 52.8205 16.5163 47.9737 16.4528C47.9737 16.4528 58.2714 20.0916 61.8452 16.5309C62.908 15.4717 61.4878 12.9933 60.1218 12.372C59.6357 12.1508 59.1682 12.0487 58.711 12.0412Z" fill="#DC973D" stroke="#260704" stroke-width="2" stroke-linecap="round" stroke-linejoin="round"/>
<path d="M63.0585 16.3373C63.4817 18.3945 63.6943 20.4894 63.6932 22.5896C63.6932 39.6075 49.8974 53.4033 32.8795 53.4033C15.8614 53.4033 2.0658 39.6077 2.0658 22.5896C2.0658 20.6087 2.25267 18.6714 2.6099 16.7944C2.7551 16.0307 3.53495 15.4171 4.31255 15.4161L61.8102 15.3389C62.3761 15.3381 62.9444 15.7831 63.0585 16.3373Z" fill="#F9EDDC" stroke="#260704" stroke-width="2" stroke-linecap="round" stroke-linejoin="round"/>
<path d="M32.9709 42.7381C26.6926 31.8637 17.5396 32.0295 20.792 25.9195C22.7165 22.3041 29.8245 21.51 33.0718 26.3405C36.0037 21.5396 43.2286 22.4269 45.1082 25.9735C48.3388 32.0694 39.4497 31.5163 32.9709 42.7381Z" fill="#260704" stroke="#260704" stroke-width="2" stroke-linecap="round" stroke-linejoin="round"/>
<path d="M26.4369 22.9624C24.0135 23.009 21.7536 24.1118 20.7914 25.9196C18.4804 30.261 22.4336 31.4365 27.1676 35.6528L44.0351 24.6559C41.2967 22.2912 35.5962 22.2077 33.0727 26.3401C31.4492 23.9249 28.8604 22.9157 26.4369 22.9624Z" fill="#DC973D" stroke="#260704" stroke-width="2" stroke-linecap="round" stroke-linejoin="round"/>
<mask id="mask0_1_192" style="mask-type:luminance" maskUnits="userSpaceOnUse" x="1" y="14" width="64" height="41">
<path d="M63.0585 16.3373C63.4817 18.3945 63.6943 20.4894 63.6932 22.5896C63.6932 39.6075 49.8974 53.4033 32.8795 53.4033C15.8614 53.4033 2.0658 39.6077 2.0658 22.5896C2.0658 20.6087 2.25267 18.6714 2.6099 16.7944C2.7551 16.0307 3.53495 15.4171 4.31255 15.4161L61.8102 15.3389C62.3761 15.3381 62.9444 15.7831 63.0585 16.3373Z" fill="#F9EDDC" stroke="#260704" stroke-width="1.51177" stroke-linecap="round" stroke-linejoin="round"/>
</mask>
<g mask="url(#mask0_1_192)">
<path opacity="0.1" d="M33.8704 11.456H78.3885V55.2663H33.8704V11.456Z" fill="#7B170C" stroke="#7B170C" stroke-width="1.42851" stroke-linecap="round" stroke-linejoin="round"/>
</g>
</g>
<defs>
<clipPath id="clip0_1_192">
<rect width="80" height="54.1176" fill="white" transform="translate(0 0.705872)"/>
</clipPath>
</defs>
</svg>
